<svg width="36" height="36" viewBox="0 0 36 36" fill="none" xmlns="http://www.w3.org/2000/svg">
<g id="Group">
<path id="Vector" d="M33.6252 12.7379C33.1633 11.2617 33.3602 9.0458 32.1598 7.33483C30.95 5.61037 28.8458 5.12023 27.6577 4.22322C26.482 3.33566 25.3883 1.40424 23.4107 0.738108C21.4889 0.0907497 19.5237 0.969207 18 0.969207C16.4765 0.969207 14.5114 0.0905381 12.5893 0.738037C10.6121 1.40402 9.51742 3.33587 8.34253 4.223C7.15567 5.11896 5.04993 5.61044 3.84031 7.33461C2.64095 9.04418 2.83584 11.2652 2.37482 12.7379C1.93609 14.1395 0.5 15.8217 0.5 18.0002C0.5 20.18 1.93445 21.8557 2.37482 23.2624C2.83666 24.7386 2.63979 26.9545 3.84018 28.6655C5.04993 30.39 7.15403 30.8801 8.34232 31.7772C9.51776 32.6646 10.6117 34.5961 12.5893 35.2622C14.5098 35.9091 16.478 35.0311 18 35.0311C19.5198 35.0311 21.4927 35.9082 23.4107 35.2623C25.388 34.5963 26.482 32.6649 27.6575 31.7773C28.8443 30.8813 30.9501 30.3899 32.1597 28.6657C33.3591 26.9561 33.1641 24.7352 33.6252 23.2624C34.0639 21.8607 35.5 20.1785 35.5 18.0002C35.5 15.8205 34.0659 14.1453 33.6252 12.7379ZM31.0233 22.3945C30.485 24.1145 30.626 26.0394 29.9452 27.01C29.2552 27.9934 27.4423 28.4426 26.0435 29.4988C24.66 30.5433 23.6903 32.1989 22.5625 32.5788C21.4956 32.9382 19.7568 32.2084 18.0001 32.2084C16.2305 32.2084 14.5096 32.9398 13.4376 32.5788C12.3099 32.1989 11.3416 30.5444 9.95656 29.4988C8.566 28.449 6.74285 27.9905 6.05481 27.0098C5.37614 26.0425 5.51184 24.1043 4.97679 22.3946C4.45233 20.7194 3.23438 19.269 3.23438 18.0002C3.23438 16.7301 4.45124 15.2846 4.97665 13.6058C5.51498 11.8859 5.37396 9.96081 6.05481 8.99034C6.74442 8.00752 8.55861 7.55682 9.95656 6.50146C11.3445 5.45365 12.3081 3.80195 13.4374 3.42153C14.5035 3.0625 16.2479 3.79193 17.9999 3.79193C19.7727 3.79193 21.4893 3.06003 22.5624 3.42153C23.69 3.80131 24.6591 5.45647 26.0435 6.50153C27.4339 7.55132 29.2571 8.00978 29.9452 8.99041C30.624 9.95792 30.4875 11.8942 31.0232 13.6057V13.6057C31.5477 15.2809 32.7656 16.7313 32.7656 18.0002C32.7656 19.2702 31.5488 20.7157 31.0233 22.3945ZM24.2988 13.4703C24.8328 14.0214 24.8328 14.915 24.2988 15.4661L17.4557 22.53C16.9217 23.0812 16.056 23.0811 15.5221 22.53L11.7012 18.5859C11.1673 18.0347 11.1672 17.1412 11.7012 16.5901C12.2351 16.039 13.1009 16.0389 13.6346 16.5901L16.4888 19.5363L22.3652 13.4703C22.8992 12.9192 23.7649 12.9192 24.2988 13.4703Z" fill="#A083DE"/>
</g>
</svg>
