<svg width="46" height="46" viewBox="0 0 46 46" fill="none" xmlns="http://www.w3.org/2000/svg">
<g id="Partnership">
<path id="Vector" d="M35.375 26.9375C35.2344 26.9375 34.9531 26.9375 34.8125 26.7969L25.8125 17.7969V17.375C25.8125 17.2344 25.9531 16.9531 25.9531 16.8125L34.3906 8.375C34.6719 8.09375 35.0937 8.09375 35.375 8.375C35.6562 8.65625 35.6562 9.07813 35.375 9.35938L27.5 17.375L35.5156 25.3906L43.5312 17.375C43.8125 17.0937 44.2344 17.0937 44.5156 17.375C44.7969 17.6562 44.7969 18.0781 44.5156 18.3594L36.0781 26.7969C35.7969 26.9375 35.6562 26.9375 35.375 26.9375Z" fill="#A083DE"/>
<path id="Vector_2" d="M25.5312 21.0313C25.3906 21.0313 25.1094 21.0312 24.9687 20.8906C24.6875 20.6094 24.6875 20.1875 24.9687 19.9063L26.5156 18.3594C26.7969 18.0781 27.2188 18.0781 27.5 18.3594C27.7813 18.6406 27.7813 19.0625 27.5 19.3437L25.9531 20.8906C25.8125 20.8906 25.6719 21.0313 25.5312 21.0313ZM16.5312 33.4062C15.9687 33.4062 15.4062 33.2656 14.9844 32.8437C14.1406 32 14.1406 30.7344 14.9844 29.8906L22.4375 22.4375C22.7188 22.1563 23.1406 22.1563 23.4219 22.4375C23.7031 22.7188 23.7031 23.1406 23.4219 23.4219L15.9687 30.7344C15.6875 31.0156 15.6875 31.4375 15.9687 31.7188C16.25 32 16.6719 32 16.9531 31.7188L18.9219 29.75C19.2031 29.4687 19.625 29.4687 19.9062 29.75C20.1875 30.0312 20.1875 30.4531 19.9062 30.7344L17.9375 32.7031C17.6562 33.125 17.0937 33.4062 16.5312 33.4062Z" fill="#A083DE"/>
<path id="Vector_3" d="M18.5 35.375C17.9375 35.375 17.375 35.0938 16.9531 34.8125C16.1094 33.9688 16.1094 32.7031 16.9531 31.8594L18.9219 29.8906C19.2031 29.6094 19.625 29.6094 19.9063 29.8906C20.1875 30.1719 20.1875 30.5938 19.9063 30.875L17.9375 32.8438C17.6562 33.125 17.6562 33.5469 17.9375 33.8281C18.0781 33.9688 18.2188 33.9687 18.5 33.9687C18.6406 33.9687 18.9219 33.8281 19.0625 33.8281L21.0313 31.8594C21.3125 31.5781 21.7344 31.5781 22.0156 31.8594C22.2969 32.1406 22.2969 32.5625 22.0156 32.8438L20.0469 34.8125C19.625 35.0938 19.0625 35.375 18.5 35.375Z" fill="#A083DE"/>
<path id="Vector_4" d="M20.4687 37.3438C19.9062 37.3438 19.3438 37.2031 18.9219 36.7812C18.0781 35.9375 18.0781 34.6719 18.9219 33.8281L20.8906 31.8594C21.1719 31.5781 21.5937 31.5781 21.875 31.8594C22.1562 32.1406 22.1562 32.5625 21.875 32.8438L19.9062 34.8125C19.625 35.0938 19.625 35.5156 19.9062 35.7969C20.1875 36.0781 20.6094 36.0781 20.8906 35.7969L22.8594 33.8281C23.1406 33.5469 23.5625 33.5469 23.8438 33.8281C24.125 34.1094 24.125 34.5313 23.8438 34.8125L21.875 36.7812C21.5937 37.0625 21.0312 37.3438 20.4687 37.3438ZM25.9531 39.875C25.3906 39.875 24.8281 39.7344 24.4062 39.3125L23.4219 38.3281C23.1406 38.0469 23.1406 37.625 23.4219 37.3438C23.7031 37.0625 24.125 37.0625 24.4062 37.3438L25.3906 38.3281C25.6719 38.6094 26.0937 38.6094 26.375 38.3281C26.5156 38.1875 26.5156 38.0469 26.5156 37.7656C26.5156 37.4844 26.375 37.3438 26.375 37.2031L25.3906 36.2188C25.1094 35.9375 25.1094 35.5156 25.3906 35.2344C25.6719 34.9531 26.0937 34.9531 26.375 35.2344L27.3594 36.2188C28.2031 37.0625 28.2031 38.3281 27.3594 39.1719C27.0781 39.5938 26.5156 39.875 25.9531 39.875Z" fill="#A083DE"/>
<path id="Vector_5" d="M27.9219 37.7656C27.3594 37.7656 26.7969 37.4844 26.375 37.2031L25.3906 36.2188C25.1094 35.9375 25.1094 35.5156 25.3906 35.2344C25.6719 34.9531 26.0937 34.9531 26.375 35.2344L27.3594 36.2188C27.5 36.3594 27.6406 36.3594 27.9219 36.3594C28.0625 36.3594 28.3437 36.2188 28.4844 36.2188C28.625 36.2188 28.625 35.9375 28.625 35.6563C28.625 35.375 28.4844 35.2344 28.4844 35.0938L27.5 34.25C27.2188 33.9688 27.2188 33.5469 27.5 33.2656C27.7812 32.9844 28.2031 32.9844 28.4844 33.2656L29.4687 34.25C30.3125 35.0938 30.3125 36.3594 29.4687 37.2031C29.0469 37.625 28.4844 37.7656 27.9219 37.7656Z" fill="#A083DE"/>
<path id="Vector_6" d="M30.0312 35.7969C29.4687 35.7969 28.9062 35.6563 28.4844 35.2344L27.5 34.25C27.2188 33.9688 27.2188 33.5469 27.5 33.2656C27.7813 32.9844 28.2031 32.9844 28.4844 33.2656L29.4687 34.25C29.75 34.5313 30.1719 34.5313 30.4531 34.25C30.7344 33.9688 30.7344 33.5469 30.4531 33.2656L29.4687 32.2813C29.1875 32 29.1875 31.5781 29.4687 31.2969C29.75 31.0156 30.1719 31.0156 30.4531 31.2969L31.4375 32.2813C32.2812 33.125 32.2812 34.3906 31.4375 35.2344C31.0156 35.6563 30.4531 35.7969 30.0312 35.7969Z" fill="#A083DE"/>
<path id="Vector_7" d="M32 33.8281C31.4375 33.8281 30.875 33.6875 30.4531 33.2656L29.4688 32.2813C29.1875 32 29.1875 31.5781 29.4688 31.2969C29.75 31.0156 30.1719 31.0156 30.4531 31.2969L31.4375 32.2813C31.7187 32.5625 32.1406 32.5625 32.4219 32.2813C32.5625 32.1406 32.5625 32 32.5625 31.7188C32.5625 31.4375 32.4219 31.2969 32.4219 31.1562L31.4375 30.3125C31.1562 30.0313 31.1562 29.6094 31.4375 29.3281C31.7187 29.0469 32.1406 29.0469 32.4219 29.3281L33.4062 30.3125C34.25 31.1563 34.25 32.4219 33.4062 33.2656C32.9844 33.6875 32.4219 33.8281 32 33.8281Z" fill="#A083DE"/>
<path id="Vector_8" d="M22.4375 39.3125C21.875 39.3125 21.3125 39.1719 20.8906 38.75C20.0469 37.9063 20.0469 36.6406 20.8906 35.7969L22.8594 33.8281C23.1406 33.5469 23.5625 33.5469 23.8438 33.8281C24.125 34.1094 24.125 34.5313 23.8438 34.8125L21.875 36.7813C21.5938 37.0625 21.5938 37.4844 21.875 37.7656C22.1562 38.0469 22.5781 38.0469 22.8594 37.7656L31.8594 28.7656C32.1406 28.4844 32.1406 28.0625 31.8594 27.7812C31.5781 27.5 31.5781 27.0781 31.8594 26.7969L33.4062 25.25L27.5 19.3438L25.9531 20.8906C25.6719 21.1719 25.25 21.1719 24.9688 20.8906C24.6875 20.6094 24.6875 20.1875 24.9688 19.9063L26.9375 17.9375C27.2188 17.6563 27.6406 17.6563 27.9219 17.9375L34.9531 24.8281C35.0938 24.9688 35.0938 25.1094 35.0938 25.3906C35.0938 25.6719 34.9531 25.8125 34.9531 25.9531L33.4062 27.5C33.8281 28.3438 33.6875 29.1875 32.9844 29.8906L23.9844 38.8906C23.5625 39.1719 23 39.3125 22.4375 39.3125ZM12.0312 26.5156C11.8906 26.5156 11.6094 26.5156 11.4688 26.375L3.03125 17.9375C2.75 17.6563 2.75 17.2344 3.03125 16.9531C3.3125 16.6719 3.73438 16.6719 4.01562 16.9531L12.0312 24.9688L20.0469 16.9531L12.0312 8.9375C11.75 8.65625 11.75 8.09375 12.0312 7.8125C12.3125 7.53125 12.7344 7.53125 13.0156 7.8125L21.4531 16.25C21.5938 16.3906 21.5938 16.5313 21.5938 16.8125C21.5938 17.0938 21.5938 17.2344 21.4531 17.375L12.4531 26.375C12.4531 26.375 12.1719 26.5156 12.0312 26.5156Z" fill="#A083DE"/>
<path id="Vector_9" d="M8.09375 22.4375C7.95312 22.4375 7.67188 22.4375 7.53125 22.2969L1.625 16.3906C1.34375 16.1094 1.34375 15.6875 1.625 15.4063C1.90625 15.125 2.32812 15.125 2.60938 15.4063L8.09375 20.8906L16.1094 12.875L10.625 7.39063C10.3438 7.10938 10.3438 6.6875 10.625 6.40625C10.9062 6.125 11.3281 6.125 11.6094 6.40625L17.5156 12.3125C17.6563 12.4531 17.6562 12.5938 17.6562 12.875C17.6562 13.1563 17.6563 13.1563 17.5156 13.2969L8.51562 22.2969C8.375 22.4375 8.23438 22.4375 8.09375 22.4375Z" fill="#A083DE"/>
<path id="Vector_10" d="M12.4969 22.2564C12.7715 21.9818 12.7715 21.5366 12.4969 21.2621C12.2223 20.9875 11.7771 20.9875 11.5025 21.2621C11.228 21.5367 11.228 21.9819 11.5026 22.2565C11.7772 22.531 12.2224 22.531 12.4969 22.2564Z" fill="#A083DE"/>
<path id="Vector_11" d="M15.9688 30.4531C15.8281 30.4531 15.5469 30.4531 15.4063 30.3125L14.5625 29.3281C13.8594 28.625 13.7187 27.6406 14.1406 26.9375L12.5938 25.3906C12.4531 25.25 12.4531 25.1094 12.4531 24.8281C12.4531 24.5469 12.5938 24.4062 12.5938 24.2656L19.625 17.375C19.9063 17.0938 20.3281 17.0938 20.6094 17.375C20.8906 17.6563 20.8906 18.0781 20.6094 18.3594L14.1406 24.8281L15.6875 26.375C15.9688 26.6562 15.9688 27.0781 15.6875 27.3594C15.4063 27.6406 15.4063 28.0625 15.6875 28.3438L16.6719 29.3281C16.9531 29.6094 16.9531 30.0313 16.6719 30.3125C16.3906 30.4531 16.25 30.4531 15.9688 30.4531Z" fill="#A083DE"/>
<path id="Vector_12" d="M26.9375 26.5156C26.0938 26.5156 25.25 26.2344 24.6875 25.5312L22.0156 22.8594C21.7344 22.5781 21.7344 22.1563 22.0156 21.875C22.2969 21.5938 22.7188 21.5938 23 21.875L25.6719 24.5469C26.2344 25.1094 27.2188 25.25 27.9219 24.6875L23.4219 20.1875L21.1719 20.4688C20.8906 20.4688 20.75 20.4688 20.6094 20.3281L19.625 19.3438L13.0156 25.8125C12.7344 26.0938 12.3125 26.0938 12.0313 25.8125C11.75 25.5313 11.75 25.1094 12.0313 24.8281L19.0625 17.9375C19.3438 17.6563 19.7656 17.6563 20.0469 17.9375L21.3125 19.2031L23.5625 18.9219C23.8438 18.9219 23.9844 18.9219 24.125 19.0625L29.4688 24.4063C29.75 24.6875 29.75 25.1094 29.4688 25.3906L29.1875 25.6719C28.625 26.0938 27.7812 26.5156 26.9375 26.5156Z" fill="#A083DE"/>
</g>
</svg>
