<svg width="36" height="36" viewBox="0 0 36 36" fill="none" xmlns="http://www.w3.org/2000/svg">
<g id="shipping" clip-path="url(#clip0_1_1024)">
<path id="Vector" d="M32.7863 18.6429V2.70487C32.7863 2.13627 32.3253 1.67529 31.7567 1.67529H4.17215C3.60355 1.67529 3.14257 2.13627 3.14257 2.70487V19.9134C2.6459 19.9858 2.16035 20.1786 1.73081 20.4975C0.376713 21.4577 0.0564464 23.6065 1.1907 24.9317L5.82812 30.5536C8.69872 33.9133 11.7481 34.3249 16.2814 34.3249C20.1716 34.3249 21.9109 34.3421 25.3013 33.5695L28.6026 32.7799C29.138 33.5275 29.9878 34.0117 30.9431 34.0117H32.5695C34.1854 34.0117 35.5 32.6268 35.5 30.9245V21.7208C35.5001 20.0954 34.3012 18.7602 32.7863 18.6429ZM28.1586 20.7608L26.7867 20.064C24.5312 18.9255 21.9234 18.8834 19.6323 19.9486C19.0072 20.1944 17.6438 21.0193 16.9366 20.9917H12.1764C10.5975 20.9917 9.31283 22.2763 9.31283 23.8553V24.6062C9.30397 24.5968 9.29471 24.588 9.28599 24.5785L5.88667 20.8887C5.68096 20.6654 5.44985 20.4786 5.20179 20.3287V10.114H13.6274V13.8881C13.6274 14.4567 14.0883 14.9177 14.6569 14.9177H21.1537C21.7222 14.9177 22.1832 14.4567 22.1832 13.8881V10.114H30.7272V18.6428C29.5243 18.7357 28.5212 19.5963 28.1586 20.7608ZM15.6865 10.114H20.124V12.8586H15.6865V10.114ZM30.7271 8.05483H22.1832V3.73445H30.7272V8.05483H30.7271ZM20.1241 3.73445V8.0549H15.6865V3.73445H20.1241ZM13.6273 3.73445V8.0549H5.20172V3.73445H13.6273ZM24.8234 31.5665C21.6914 32.2839 19.8052 32.2548 16.3183 32.2548C12.0628 32.2548 10.0066 32.1861 7.41669 29.2433L2.77927 23.6213C1.97263 22.5709 3.43367 21.331 4.37223 22.2838L7.77155 25.9737C8.66996 26.9216 9.8005 27.4433 11.1939 27.474H20.6185C21.1871 27.474 21.6481 27.0131 21.6481 26.4445C21.6481 25.8759 21.1871 25.4149 20.6185 25.4149H11.3719V23.8552C11.3719 23.4117 11.7327 23.0508 12.1764 23.0508H16.9366C18.009 23.1276 19.5568 22.2321 20.5003 21.8157C22.2163 21.0178 24.1695 21.0494 25.8566 21.9009L28.0128 22.9961V30.8036L24.8234 31.5665ZM33.4409 30.9244C33.4409 31.4913 33.05 31.9525 32.5695 31.9525H30.9432C30.4627 31.9525 30.0719 31.4913 30.0719 30.9244V21.7208C30.0719 21.1539 30.4628 20.6927 30.9432 20.6927H32.5695C33.05 20.6927 33.4409 21.1539 33.4409 21.7208V30.9244Z" fill="#A083DE"/>
</g>
<defs>
<clipPath id="clip0_1_1024">
<rect width="35" height="35" fill="white" transform="translate(0.5 0.5)"/>
</clipPath>
</defs>
</svg>
