<svg width="197" height="24" viewBox="0 0 197 24" fill="none" xmlns="http://www.w3.org/2000/svg">
<g id="VITAZEN">
<mask id="path-1-outside-1_1_1057" maskUnits="userSpaceOnUse" x="0" y="-0.5" width="197" height="25" fill="black">
<rect fill="white" y="-0.5" width="197" height="25"/>
<path d="M23.1217 15.789L29.2431 1.11156C29.3247 0.925434 29.488 0.819076 29.7056 0.819076H32.3174C32.6439 0.819076 32.7527 0.952024 32.6167 1.2711L25.8695 17.2249C24.3187 20.8942 21.1084 23.4734 17.626 23.4734H16.0208C12.5112 23.4734 9.30081 20.8676 7.77726 17.2249L1.05728 1.2711C0.921245 0.952024 1.03007 0.819076 1.35655 0.819076H3.96836C4.18601 0.819076 4.34925 0.925434 4.43087 1.11156L10.5251 15.789C11.967 19.2191 13.8715 20.6017 16.1568 20.6017H17.4899C19.7753 20.6017 21.6797 19.2191 23.1217 15.789Z"/>
<path d="M37.1576 22.7555V1.21792C37.1576 0.952024 37.2936 0.819076 37.5657 0.819076H39.8238C40.0959 0.819076 40.2319 0.952024 40.2319 1.21792V22.7555C40.2319 23.0214 40.0959 23.1543 39.8238 23.1543H37.5657C37.2936 23.1543 37.1576 23.0214 37.1576 22.7555Z"/>
<path d="M61.7669 3.58439V22.7289C61.7669 22.9948 61.6308 23.1277 61.3588 23.1277H59.1006C58.8286 23.1277 58.6925 22.9948 58.6925 22.7289V3.58439H45.0349C44.7084 3.58439 44.5996 3.45144 44.654 3.15896L45.0621 1.19133C45.1165 0.952024 45.2798 0.819076 45.5246 0.819076H74.9075C75.1524 0.819076 75.3156 0.952024 75.37 1.19133L75.7781 3.15896C75.8326 3.45144 75.7237 3.58439 75.3973 3.58439H61.7669Z"/>
<path d="M83.6157 8.50347L80.5958 15.7358H99.2322L96.2123 8.50347C94.7703 5.07341 92.8659 3.69075 90.5806 3.69075H89.2474C86.9621 3.69075 85.0577 5.07341 83.6157 8.50347ZM79.4803 18.4746L77.5215 23.1543C77.4399 23.3671 77.2766 23.4734 77.0318 23.4734H74.4472C74.1207 23.4734 74.0119 23.3139 74.1479 23.0214L80.8679 7.06763C82.3914 3.42486 85.6018 0.819076 89.1114 0.819076H90.7166C94.199 0.819076 97.4094 3.39827 98.9601 7.06763L105.707 23.0214C105.843 23.3139 105.735 23.4734 105.408 23.4734H102.823C102.579 23.4734 102.415 23.3671 102.334 23.1543L100.375 18.4746H79.4803Z"/>
<path d="M126.763 3.53121H109.35C109.078 3.53121 108.97 3.39827 108.997 3.13237L109.35 1.19133C109.378 0.925434 109.541 0.792486 109.813 0.792486H128.477C131.986 0.792486 134.271 2.57399 134.271 5.76474C134.271 8.53006 132.53 10.5775 127.878 11.8272L116.478 14.885C113.241 15.7624 111.935 16.826 111.935 18.3682C111.935 19.7509 113.023 20.3358 115.581 20.3358L133.863 20.3092C134.135 20.3092 134.244 20.4422 134.217 20.7081L133.863 22.7023C133.836 22.9682 133.673 23.1012 133.401 23.1012H114.873C110.956 23.1012 108.616 21.2399 108.616 18.1555C108.616 15.2838 110.629 13.2896 114.982 12.1462L126.409 9.16821C129.864 8.26416 130.952 7.30694 130.952 5.76474C130.952 4.24913 129.864 3.53121 126.763 3.53121Z"/>
<path d="M140.923 10.604H163.123C163.395 10.604 163.531 10.737 163.531 11.0029V12.9705C163.531 13.2364 163.395 13.3694 163.123 13.3694H140.923C141.358 18.6873 144.596 20.6283 154.852 20.6283C157.165 20.6283 160.756 20.4156 163.395 19.937C163.695 19.8572 163.831 19.9902 163.749 20.2827L163.314 22.3566C163.259 22.596 163.123 22.7289 162.878 22.7821C160.838 23.1809 158.444 23.5 154.907 23.5C142.12 23.5 137.549 19.7509 137.549 11.9867C137.549 4.27572 142.12 0.5 154.907 0.5C158.444 0.5 160.811 0.792486 162.851 1.19133C163.096 1.24451 163.232 1.37746 163.286 1.61676L163.749 3.69075C163.831 3.98324 163.695 4.11619 163.395 4.03642C160.756 3.5578 157.165 3.37168 154.852 3.37168C144.596 3.37168 141.358 5.31272 140.923 10.604Z"/>
<path d="M172.113 8.18439L172.14 22.7555C172.14 23.0214 172.004 23.1543 171.732 23.1543H169.447C169.174 23.1543 169.038 23.0214 169.038 22.7555V6.72196C169.038 3.10578 171.351 0.5 174.561 0.5C178.18 0.5 180.03 2.0422 182.043 6.72196C182.043 6.72196 183.431 9.91272 185.743 15.789C187.267 19.5913 188.192 20.6017 190.232 20.6017C192.082 20.6017 192.926 19.1127 192.926 15.789V1.21792C192.926 0.952024 193.062 0.819076 193.334 0.819076H195.592C195.864 0.819076 196 0.952024 196 1.21792V17.2249C196 20.8144 193.687 23.4734 190.477 23.4734C186.859 23.4734 185.009 21.9312 183.023 17.2249C183.023 17.2249 181.499 13.715 179.322 8.18439C177.826 4.38208 176.874 3.37168 174.806 3.37168C172.956 3.37168 172.113 4.86069 172.113 8.18439Z"/>
</mask>
<path d="M23.1217 15.789L29.2431 1.11156C29.3247 0.925434 29.488 0.819076 29.7056 0.819076H32.3174C32.6439 0.819076 32.7527 0.952024 32.6167 1.2711L25.8695 17.2249C24.3187 20.8942 21.1084 23.4734 17.626 23.4734H16.0208C12.5112 23.4734 9.30081 20.8676 7.77726 17.2249L1.05728 1.2711C0.921245 0.952024 1.03007 0.819076 1.35655 0.819076H3.96836C4.18601 0.819076 4.34925 0.925434 4.43087 1.11156L10.5251 15.789C11.967 19.2191 13.8715 20.6017 16.1568 20.6017H17.4899C19.7753 20.6017 21.6797 19.2191 23.1217 15.789Z" fill="#0F1C38"/>
<path d="M37.1576 22.7555V1.21792C37.1576 0.952024 37.2936 0.819076 37.5657 0.819076H39.8238C40.0959 0.819076 40.2319 0.952024 40.2319 1.21792V22.7555C40.2319 23.0214 40.0959 23.1543 39.8238 23.1543H37.5657C37.2936 23.1543 37.1576 23.0214 37.1576 22.7555Z" fill="#0F1C38"/>
<path d="M61.7669 3.58439V22.7289C61.7669 22.9948 61.6308 23.1277 61.3588 23.1277H59.1006C58.8286 23.1277 58.6925 22.9948 58.6925 22.7289V3.58439H45.0349C44.7084 3.58439 44.5996 3.45144 44.654 3.15896L45.0621 1.19133C45.1165 0.952024 45.2798 0.819076 45.5246 0.819076H74.9075C75.1524 0.819076 75.3156 0.952024 75.37 1.19133L75.7781 3.15896C75.8326 3.45144 75.7237 3.58439 75.3973 3.58439H61.7669Z" fill="#0F1C38"/>
<path d="M83.6157 8.50347L80.5958 15.7358H99.2322L96.2123 8.50347C94.7703 5.07341 92.8659 3.69075 90.5806 3.69075H89.2474C86.9621 3.69075 85.0577 5.07341 83.6157 8.50347ZM79.4803 18.4746L77.5215 23.1543C77.4399 23.3671 77.2766 23.4734 77.0318 23.4734H74.4472C74.1207 23.4734 74.0119 23.3139 74.1479 23.0214L80.8679 7.06763C82.3914 3.42486 85.6018 0.819076 89.1114 0.819076H90.7166C94.199 0.819076 97.4094 3.39827 98.9601 7.06763L105.707 23.0214C105.843 23.3139 105.735 23.4734 105.408 23.4734H102.823C102.579 23.4734 102.415 23.3671 102.334 23.1543L100.375 18.4746H79.4803Z" fill="#0F1C38"/>
<path d="M126.763 3.53121H109.35C109.078 3.53121 108.97 3.39827 108.997 3.13237L109.35 1.19133C109.378 0.925434 109.541 0.792486 109.813 0.792486H128.477C131.986 0.792486 134.271 2.57399 134.271 5.76474C134.271 8.53006 132.53 10.5775 127.878 11.8272L116.478 14.885C113.241 15.7624 111.935 16.826 111.935 18.3682C111.935 19.7509 113.023 20.3358 115.581 20.3358L133.863 20.3092C134.135 20.3092 134.244 20.4422 134.217 20.7081L133.863 22.7023C133.836 22.9682 133.673 23.1012 133.401 23.1012H114.873C110.956 23.1012 108.616 21.2399 108.616 18.1555C108.616 15.2838 110.629 13.2896 114.982 12.1462L126.409 9.16821C129.864 8.26416 130.952 7.30694 130.952 5.76474C130.952 4.24913 129.864 3.53121 126.763 3.53121Z" fill="#0F1C38"/>
<path d="M140.923 10.604H163.123C163.395 10.604 163.531 10.737 163.531 11.0029V12.9705C163.531 13.2364 163.395 13.3694 163.123 13.3694H140.923C141.358 18.6873 144.596 20.6283 154.852 20.6283C157.165 20.6283 160.756 20.4156 163.395 19.937C163.695 19.8572 163.831 19.9902 163.749 20.2827L163.314 22.3566C163.259 22.596 163.123 22.7289 162.878 22.7821C160.838 23.1809 158.444 23.5 154.907 23.5C142.12 23.5 137.549 19.7509 137.549 11.9867C137.549 4.27572 142.12 0.5 154.907 0.5C158.444 0.5 160.811 0.792486 162.851 1.19133C163.096 1.24451 163.232 1.37746 163.286 1.61676L163.749 3.69075C163.831 3.98324 163.695 4.11619 163.395 4.03642C160.756 3.5578 157.165 3.37168 154.852 3.37168C144.596 3.37168 141.358 5.31272 140.923 10.604Z" fill="#0F1C38"/>
<path d="M172.113 8.18439L172.14 22.7555C172.14 23.0214 172.004 23.1543 171.732 23.1543H169.447C169.174 23.1543 169.038 23.0214 169.038 22.7555V6.72196C169.038 3.10578 171.351 0.5 174.561 0.5C178.18 0.5 180.03 2.0422 182.043 6.72196C182.043 6.72196 183.431 9.91272 185.743 15.789C187.267 19.5913 188.192 20.6017 190.232 20.6017C192.082 20.6017 192.926 19.1127 192.926 15.789V1.21792C192.926 0.952024 193.062 0.819076 193.334 0.819076H195.592C195.864 0.819076 196 0.952024 196 1.21792V17.2249C196 20.8144 193.687 23.4734 190.477 23.4734C186.859 23.4734 185.009 21.9312 183.023 17.2249C183.023 17.2249 181.499 13.715 179.322 8.18439C177.826 4.38208 176.874 3.37168 174.806 3.37168C172.956 3.37168 172.113 4.86069 172.113 8.18439Z" fill="#0F1C38"/>
<path d="M23.1217 15.789L29.2431 1.11156C29.3247 0.925434 29.488 0.819076 29.7056 0.819076H32.3174C32.6439 0.819076 32.7527 0.952024 32.6167 1.2711L25.8695 17.2249C24.3187 20.8942 21.1084 23.4734 17.626 23.4734H16.0208C12.5112 23.4734 9.30081 20.8676 7.77726 17.2249L1.05728 1.2711C0.921245 0.952024 1.03007 0.819076 1.35655 0.819076H3.96836C4.18601 0.819076 4.34925 0.925434 4.43087 1.11156L10.5251 15.789C11.967 19.2191 13.8715 20.6017 16.1568 20.6017H17.4899C19.7753 20.6017 21.6797 19.2191 23.1217 15.789Z" stroke="#0F1C38" mask="url(#path-1-outside-1_1_1057)"/>
<path d="M37.1576 22.7555V1.21792C37.1576 0.952024 37.2936 0.819076 37.5657 0.819076H39.8238C40.0959 0.819076 40.2319 0.952024 40.2319 1.21792V22.7555C40.2319 23.0214 40.0959 23.1543 39.8238 23.1543H37.5657C37.2936 23.1543 37.1576 23.0214 37.1576 22.7555Z" stroke="#0F1C38" mask="url(#path-1-outside-1_1_1057)"/>
<path d="M61.7669 3.58439V22.7289C61.7669 22.9948 61.6308 23.1277 61.3588 23.1277H59.1006C58.8286 23.1277 58.6925 22.9948 58.6925 22.7289V3.58439H45.0349C44.7084 3.58439 44.5996 3.45144 44.654 3.15896L45.0621 1.19133C45.1165 0.952024 45.2798 0.819076 45.5246 0.819076H74.9075C75.1524 0.819076 75.3156 0.952024 75.37 1.19133L75.7781 3.15896C75.8326 3.45144 75.7237 3.58439 75.3973 3.58439H61.7669Z" stroke="#0F1C38" mask="url(#path-1-outside-1_1_1057)"/>
<path d="M83.6157 8.50347L80.5958 15.7358H99.2322L96.2123 8.50347C94.7703 5.07341 92.8659 3.69075 90.5806 3.69075H89.2474C86.9621 3.69075 85.0577 5.07341 83.6157 8.50347ZM79.4803 18.4746L77.5215 23.1543C77.4399 23.3671 77.2766 23.4734 77.0318 23.4734H74.4472C74.1207 23.4734 74.0119 23.3139 74.1479 23.0214L80.8679 7.06763C82.3914 3.42486 85.6018 0.819076 89.1114 0.819076H90.7166C94.199 0.819076 97.4094 3.39827 98.9601 7.06763L105.707 23.0214C105.843 23.3139 105.735 23.4734 105.408 23.4734H102.823C102.579 23.4734 102.415 23.3671 102.334 23.1543L100.375 18.4746H79.4803Z" stroke="#0F1C38" mask="url(#path-1-outside-1_1_1057)"/>
<path d="M126.763 3.53121H109.35C109.078 3.53121 108.97 3.39827 108.997 3.13237L109.35 1.19133C109.378 0.925434 109.541 0.792486 109.813 0.792486H128.477C131.986 0.792486 134.271 2.57399 134.271 5.76474C134.271 8.53006 132.53 10.5775 127.878 11.8272L116.478 14.885C113.241 15.7624 111.935 16.826 111.935 18.3682C111.935 19.7509 113.023 20.3358 115.581 20.3358L133.863 20.3092C134.135 20.3092 134.244 20.4422 134.217 20.7081L133.863 22.7023C133.836 22.9682 133.673 23.1012 133.401 23.1012H114.873C110.956 23.1012 108.616 21.2399 108.616 18.1555C108.616 15.2838 110.629 13.2896 114.982 12.1462L126.409 9.16821C129.864 8.26416 130.952 7.30694 130.952 5.76474C130.952 4.24913 129.864 3.53121 126.763 3.53121Z" stroke="#0F1C38" mask="url(#path-1-outside-1_1_1057)"/>
<path d="M140.923 10.604H163.123C163.395 10.604 163.531 10.737 163.531 11.0029V12.9705C163.531 13.2364 163.395 13.3694 163.123 13.3694H140.923C141.358 18.6873 144.596 20.6283 154.852 20.6283C157.165 20.6283 160.756 20.4156 163.395 19.937C163.695 19.8572 163.831 19.9902 163.749 20.2827L163.314 22.3566C163.259 22.596 163.123 22.7289 162.878 22.7821C160.838 23.1809 158.444 23.5 154.907 23.5C142.12 23.5 137.549 19.7509 137.549 11.9867C137.549 4.27572 142.12 0.5 154.907 0.5C158.444 0.5 160.811 0.792486 162.851 1.19133C163.096 1.24451 163.232 1.37746 163.286 1.61676L163.749 3.69075C163.831 3.98324 163.695 4.11619 163.395 4.03642C160.756 3.5578 157.165 3.37168 154.852 3.37168C144.596 3.37168 141.358 5.31272 140.923 10.604Z" stroke="#0F1C38" mask="url(#path-1-outside-1_1_1057)"/>
<path d="M172.113 8.18439L172.14 22.7555C172.14 23.0214 172.004 23.1543 171.732 23.1543H169.447C169.174 23.1543 169.038 23.0214 169.038 22.7555V6.72196C169.038 3.10578 171.351 0.5 174.561 0.5C178.18 0.5 180.03 2.0422 182.043 6.72196C182.043 6.72196 183.431 9.91272 185.743 15.789C187.267 19.5913 188.192 20.6017 190.232 20.6017C192.082 20.6017 192.926 19.1127 192.926 15.789V1.21792C192.926 0.952024 193.062 0.819076 193.334 0.819076H195.592C195.864 0.819076 196 0.952024 196 1.21792V17.2249C196 20.8144 193.687 23.4734 190.477 23.4734C186.859 23.4734 185.009 21.9312 183.023 17.2249C183.023 17.2249 181.499 13.715 179.322 8.18439C177.826 4.38208 176.874 3.37168 174.806 3.37168C172.956 3.37168 172.113 4.86069 172.113 8.18439Z" stroke="#0F1C38" mask="url(#path-1-outside-1_1_1057)"/>
</g>
</svg>
