<svg width="14" height="14" viewBox="0 0 14 14" fill="none" xmlns="http://www.w3.org/2000/svg">
<g id="arrows">
<path id="arrow-right" d="M13.81 7.42988C13.8644 7.30881 13.8925 7.1776 13.8925 7.04488C13.8925 6.91217 13.8644 6.78095 13.81 6.65988C13.7613 6.54069 13.69 6.43203 13.6 6.33988L7.66 0.399881C7.4687 0.236055 7.22262 0.150448 6.97095 0.16017C6.71927 0.169891 6.48053 0.274223 6.30244 0.452318C6.12434 0.630412 6.02001 0.869152 6.01029 1.12083C6.00057 1.3725 6.08617 1.61858 6.25 1.80988L10.48 5.99988H1C0.734784 5.99988 0.48043 6.10524 0.292893 6.29277C0.105357 6.48031 0 6.73466 0 6.99988C0 7.2651 0.105357 7.51945 0.292893 7.70699C0.48043 7.89452 0.734784 7.99988 1 7.99988H10.46L6.23 12.2299C6.0417 12.4169 5.93538 12.671 5.93444 12.9363C5.93351 13.2017 6.03802 13.4566 6.225 13.6449C6.41198 13.8332 6.6661 13.9395 6.93146 13.9404C7.19683 13.9414 7.4517 13.8369 7.64 13.6499L13.58 7.70988C13.6731 7.63133 13.751 7.53644 13.81 7.42988Z" fill="white"/>
</g>
</svg>
