<svg width="30" height="31" viewBox="0 0 30 31" fill="none" xmlns="http://www.w3.org/2000/svg">
<g id="vuesax/linear/video">
<g id="video">
<path id="Vector" d="M15.6625 26.3582H7.7625C3.8125 26.3582 2.5 23.7332 2.5 21.0957V10.5707C2.5 6.62073 3.8125 5.30823 7.7625 5.30823H15.6625C19.6125 5.30823 20.925 6.62073 20.925 10.5707V21.0957C20.925 25.0457 19.6 26.3582 15.6625 26.3582Z" stroke="#292D32" stroke-width="1.5" stroke-linecap="round" stroke-linejoin="round"/>
<path id="Vector_2" d="M24.3998 22.2083L20.9248 19.7708V11.8833L24.3998 9.44579C26.0998 8.25829 27.4998 8.98329 27.4998 11.0708V20.5958C27.4998 22.6833 26.0998 23.4083 24.3998 22.2083Z" stroke="#292D32" stroke-width="1.5" stroke-linecap="round" stroke-linejoin="round"/>
<path id="Vector_3" d="M14.375 14.5833C15.4105 14.5833 16.25 13.7438 16.25 12.7083C16.25 11.6727 15.4105 10.8333 14.375 10.8333C13.3395 10.8333 12.5 11.6727 12.5 12.7083C12.5 13.7438 13.3395 14.5833 14.375 14.5833Z" stroke="#292D32" stroke-width="1.5" stroke-linecap="round" stroke-linejoin="round"/>
</g>
</g>
</svg>
