<svg width="30" height="31" viewBox="0 0 30 31" fill="none" xmlns="http://www.w3.org/2000/svg">
<g id="vuesax/linear/gallery">
<g id="gallery">
<path id="Vector" d="M11.25 28.3333H18.75C25 28.3333 27.5 25.8333 27.5 19.5833V12.0833C27.5 5.83325 25 3.33325 18.75 3.33325H11.25C5 3.33325 2.5 5.83325 2.5 12.0833V19.5833C2.5 25.8333 5 28.3333 11.25 28.3333Z" stroke="#292D32" stroke-width="1.5" stroke-linecap="round" stroke-linejoin="round"/>
<path id="Vector_2" d="M11.25 13.3333C12.6307 13.3333 13.75 12.214 13.75 10.8333C13.75 9.45254 12.6307 8.33325 11.25 8.33325C9.86929 8.33325 8.75 9.45254 8.75 10.8333C8.75 12.214 9.86929 13.3333 11.25 13.3333Z" stroke="#292D32" stroke-width="1.5" stroke-linecap="round" stroke-linejoin="round"/>
<path id="Vector_3" d="M3.3374 24.5207L9.4999 20.3832C10.4874 19.7207 11.9124 19.7957 12.7999 20.5582L13.2124 20.9207C14.1874 21.7582 15.7624 21.7582 16.7374 20.9207L21.9374 16.4582C22.9124 15.6207 24.4874 15.6207 25.4624 16.4582L27.4999 18.2082" stroke="#292D32" stroke-width="1.5" stroke-linecap="round" stroke-linejoin="round"/>
</g>
</g>
</svg>
